<svg width="231" height="76" viewBox="0 0 231 76" fill="none" xmlns="http://www.w3.org/2000/svg">
<path d="M76.8965 33H71.5527L71.5879 30.2402H76.8965C78.7246 30.2402 80.248 29.8594 81.4668 29.0977C82.6855 28.3242 83.5996 27.2461 84.209 25.8633C84.8301 24.4688 85.1406 22.8398 85.1406 20.9766V19.4121C85.1406 17.9473 84.9648 16.6465 84.6133 15.5098C84.2617 14.3613 83.7461 13.3945 83.0664 12.6094C82.3867 11.8125 81.5547 11.209 80.5703 10.7988C79.5977 10.3887 78.4785 10.1836 77.2129 10.1836H71.4473V7.40625H77.2129C78.8887 7.40625 80.418 7.6875 81.8008 8.25C83.1836 8.80078 84.373 9.60352 85.3691 10.6582C86.377 11.7012 87.1504 12.9668 87.6895 14.4551C88.2285 15.9316 88.498 17.5957 88.498 19.4473V20.9766C88.498 22.8281 88.2285 24.498 87.6895 25.9863C87.1504 27.4629 86.3711 28.7227 85.3516 29.7656C84.3438 30.8086 83.125 31.6113 81.6953 32.1738C80.2773 32.7246 78.6777 33 76.8965 33ZM73.3633 7.40625V33H69.9707V7.40625H73.3633ZM93.5957 7.40625H102.068C103.99 7.40625 105.613 7.69922 106.938 8.28516C108.273 8.87109 109.287 9.73828 109.979 10.8867C110.682 12.0234 111.033 13.4238 111.033 15.0879C111.033 16.2598 110.793 17.332 110.312 18.3047C109.844 19.2656 109.164 20.0859 108.273 20.7656C107.395 21.4336 106.34 21.9316 105.109 22.2598L104.16 22.6289H96.1973L96.1621 19.8691H102.174C103.393 19.8691 104.406 19.6582 105.215 19.2363C106.023 18.8027 106.633 18.2227 107.043 17.4961C107.453 16.7695 107.658 15.9668 107.658 15.0879C107.658 14.1035 107.465 13.2422 107.078 12.5039C106.691 11.7656 106.082 11.1973 105.25 10.7988C104.43 10.3887 103.369 10.1836 102.068 10.1836H96.9883V33H93.5957V7.40625ZM108.555 33L102.332 21.3984L105.865 21.3809L112.176 32.7891V33H108.555ZM115.779 7.40625H124.252C126.174 7.40625 127.797 7.69922 129.121 8.28516C130.457 8.87109 131.471 9.73828 132.162 10.8867C132.865 12.0234 133.217 13.4238 133.217 15.0879C133.217 16.2598 132.977 17.332 132.496 18.3047C132.027 19.2656 131.348 20.0859 130.457 20.7656C129.578 21.4336 128.523 21.9316 127.293 22.2598L126.344 22.6289H118.381L118.346 19.8691H124.357C125.576 19.8691 126.59 19.6582 127.398 19.2363C128.207 18.8027 128.816 18.2227 129.227 17.4961C129.637 16.7695 129.842 15.9668 129.842 15.0879C129.842 14.1035 129.648 13.2422 129.262 12.5039C128.875 11.7656 128.266 11.1973 127.434 10.7988C126.613 10.3887 125.553 10.1836 124.252 10.1836H119.172V33H115.779V7.40625ZM130.738 33L124.516 21.3984L128.049 21.3809L134.359 32.7891V33H130.738ZM69.9707 49.4062H78.4434C80.3652 49.4062 81.9883 49.6992 83.3125 50.2852C84.6484 50.8711 85.6621 51.7383 86.3535 52.8867C87.0566 54.0234 87.4082 55.4238 87.4082 57.0879C87.4082 58.2598 87.168 59.332 86.6875 60.3047C86.2188 61.2656 85.5391 62.0859 84.6484 62.7656C83.7695 63.4336 82.7148 63.9316 81.4844 64.2598L80.5352 64.6289H72.5723L72.5371 61.8691H78.5488C79.7676 61.8691 80.7812 61.6582 81.5898 61.2363C82.3984 60.8027 83.0078 60.2227 83.418 59.4961C83.8281 58.7695 84.0332 57.9668 84.0332 57.0879C84.0332 56.1035 83.8398 55.2422 83.4531 54.5039C83.0664 53.7656 82.457 53.1973 81.625 52.7988C80.8047 52.3887 79.7441 52.1836 78.4434 52.1836H73.3633V75H69.9707V49.4062ZM84.9297 75L78.707 63.3984L82.2402 63.3809L88.5508 74.7891V75H84.9297ZM99.5547 75.3516C98.2305 75.3516 97.0293 75.1289 95.9512 74.6836C94.8848 74.2266 93.9648 73.5879 93.1914 72.7676C92.4297 71.9473 91.8438 70.9746 91.4336 69.8496C91.0234 68.7246 90.8184 67.4941 90.8184 66.1582V65.4199C90.8184 63.873 91.0469 62.4961 91.5039 61.2891C91.9609 60.0703 92.582 59.0391 93.3672 58.1953C94.1523 57.3516 95.043 56.7129 96.0391 56.2793C97.0352 55.8457 98.0664 55.6289 99.1328 55.6289C100.492 55.6289 101.664 55.8633 102.648 56.332C103.645 56.8008 104.459 57.457 105.092 58.3008C105.725 59.1328 106.193 60.1172 106.498 61.2539C106.803 62.3789 106.955 63.6094 106.955 64.9453V66.4043H92.752V63.75H103.703V63.5039C103.656 62.6602 103.48 61.8398 103.176 61.043C102.883 60.2461 102.414 59.5898 101.77 59.0742C101.125 58.5586 100.246 58.3008 99.1328 58.3008C98.3945 58.3008 97.7148 58.459 97.0938 58.7754C96.4727 59.0801 95.9395 59.5371 95.4941 60.1465C95.0488 60.7559 94.7031 61.5 94.457 62.3789C94.2109 63.2578 94.0879 64.2715 94.0879 65.4199V66.1582C94.0879 67.0605 94.2109 67.9102 94.457 68.707C94.7148 69.4922 95.084 70.1836 95.5645 70.7812C96.0566 71.3789 96.6484 71.8477 97.3398 72.1875C98.043 72.5273 98.8398 72.6973 99.7305 72.6973C100.879 72.6973 101.852 72.4629 102.648 71.9941C103.445 71.5254 104.143 70.8984 104.74 70.1133L106.709 71.6777C106.299 72.2988 105.777 72.8906 105.145 73.4531C104.512 74.0156 103.732 74.4727 102.807 74.8242C101.893 75.1758 100.809 75.3516 99.5547 75.3516ZM114.285 48V75H111.016V48H114.285ZM130.721 71.748V61.957C130.721 61.207 130.568 60.5566 130.264 60.0059C129.971 59.4434 129.525 59.0098 128.928 58.7051C128.33 58.4004 127.592 58.248 126.713 58.248C125.893 58.248 125.172 58.3887 124.551 58.6699C123.941 58.9512 123.461 59.3203 123.109 59.7773C122.77 60.2344 122.6 60.7266 122.6 61.2539H119.348C119.348 60.5742 119.523 59.9004 119.875 59.2324C120.227 58.5645 120.73 57.9609 121.387 57.4219C122.055 56.8711 122.852 56.4375 123.777 56.1211C124.715 55.793 125.758 55.6289 126.906 55.6289C128.289 55.6289 129.508 55.8633 130.562 56.332C131.629 56.8008 132.461 57.5098 133.059 58.459C133.668 59.3965 133.973 60.5742 133.973 61.9922V70.8516C133.973 71.4844 134.025 72.1582 134.131 72.873C134.248 73.5879 134.418 74.2031 134.641 74.7188V75H131.248C131.084 74.625 130.955 74.127 130.861 73.5059C130.768 72.873 130.721 72.2871 130.721 71.748ZM131.283 63.4688L131.318 65.7539H128.031C127.105 65.7539 126.279 65.8301 125.553 65.9824C124.826 66.123 124.217 66.3398 123.725 66.6328C123.232 66.9258 122.857 67.2949 122.6 67.7402C122.342 68.1738 122.213 68.6836 122.213 69.2695C122.213 69.8672 122.348 70.4121 122.617 70.9043C122.887 71.3965 123.291 71.7891 123.83 72.082C124.381 72.3633 125.055 72.5039 125.852 72.5039C126.848 72.5039 127.727 72.293 128.488 71.8711C129.25 71.4492 129.854 70.9336 130.299 70.3242C130.756 69.7148 131.002 69.123 131.037 68.5488L132.426 70.1133C132.344 70.6055 132.121 71.1504 131.758 71.748C131.395 72.3457 130.908 72.9199 130.299 73.4707C129.701 74.0098 128.986 74.4609 128.154 74.8242C127.334 75.1758 126.408 75.3516 125.377 75.3516C124.088 75.3516 122.957 75.0996 121.984 74.5957C121.023 74.0918 120.273 73.418 119.734 72.5742C119.207 71.7188 118.943 70.7637 118.943 69.709C118.943 68.6895 119.143 67.793 119.541 67.0195C119.939 66.2344 120.514 65.584 121.264 65.0684C122.014 64.541 122.916 64.1426 123.971 63.873C125.025 63.6035 126.203 63.4688 127.504 63.4688H131.283ZM147.051 55.9805V58.4766H136.768V55.9805H147.051ZM140.248 51.3574H143.5V70.2891C143.5 70.9336 143.6 71.4199 143.799 71.748C143.998 72.0762 144.256 72.293 144.572 72.3984C144.889 72.5039 145.229 72.5566 145.592 72.5566C145.861 72.5566 146.143 72.5332 146.436 72.4863C146.74 72.4277 146.969 72.3809 147.121 72.3457L147.139 75C146.881 75.082 146.541 75.1582 146.119 75.2285C145.709 75.3105 145.211 75.3516 144.625 75.3516C143.828 75.3516 143.096 75.1934 142.428 74.877C141.76 74.5605 141.227 74.0332 140.828 73.2949C140.441 72.5449 140.248 71.5371 140.248 70.2715V51.3574ZM149.652 65.7012V65.2969C149.652 63.9258 149.852 62.6543 150.25 61.4824C150.648 60.2988 151.223 59.2734 151.973 58.4062C152.723 57.5273 153.631 56.8477 154.697 56.3672C155.764 55.875 156.959 55.6289 158.283 55.6289C159.619 55.6289 160.82 55.875 161.887 56.3672C162.965 56.8477 163.879 57.5273 164.629 58.4062C165.391 59.2734 165.971 60.2988 166.369 61.4824C166.768 62.6543 166.967 63.9258 166.967 65.2969V65.7012C166.967 67.0723 166.768 68.3438 166.369 69.5156C165.971 70.6875 165.391 71.7129 164.629 72.5918C163.879 73.459 162.971 74.1387 161.904 74.6309C160.85 75.1113 159.654 75.3516 158.318 75.3516C156.982 75.3516 155.781 75.1113 154.715 74.6309C153.648 74.1387 152.734 73.459 151.973 72.5918C151.223 71.7129 150.648 70.6875 150.25 69.5156C149.852 68.3438 149.652 67.0723 149.652 65.7012ZM152.904 65.2969V65.7012C152.904 66.6504 153.016 67.5469 153.238 68.3906C153.461 69.2227 153.795 69.9609 154.24 70.6055C154.697 71.25 155.266 71.7598 155.945 72.1348C156.625 72.498 157.416 72.6797 158.318 72.6797C159.209 72.6797 159.988 72.498 160.656 72.1348C161.336 71.7598 161.898 71.25 162.344 70.6055C162.789 69.9609 163.123 69.2227 163.346 68.3906C163.58 67.5469 163.697 66.6504 163.697 65.7012V65.2969C163.697 64.3594 163.58 63.4746 163.346 62.6426C163.123 61.7988 162.783 61.0547 162.326 60.4102C161.881 59.7539 161.318 59.2383 160.639 58.8633C159.971 58.4883 159.186 58.3008 158.283 58.3008C157.393 58.3008 156.607 58.4883 155.928 58.8633C155.26 59.2383 154.697 59.7539 154.24 60.4102C153.795 61.0547 153.461 61.7988 153.238 62.6426C153.016 63.4746 152.904 64.3594 152.904 65.2969ZM156.35 53.168L159.76 48H163.68L158.969 53.168H156.35ZM174.297 58.9688V75H171.045V55.9805H174.209L174.297 58.9688ZM180.238 55.875L180.221 58.8984C179.951 58.8398 179.693 58.8047 179.447 58.793C179.213 58.7695 178.943 58.7578 178.639 58.7578C177.889 58.7578 177.227 58.875 176.652 59.1094C176.078 59.3438 175.592 59.6719 175.193 60.0938C174.795 60.5156 174.479 61.0195 174.244 61.6055C174.021 62.1797 173.875 62.8125 173.805 63.5039L172.891 64.0312C172.891 62.8828 173.002 61.8047 173.225 60.7969C173.459 59.7891 173.816 58.8984 174.297 58.125C174.777 57.3398 175.387 56.7305 176.125 56.2969C176.875 55.8516 177.766 55.6289 178.797 55.6289C179.031 55.6289 179.301 55.6582 179.605 55.7168C179.91 55.7637 180.121 55.8164 180.238 55.875ZM186.777 55.9805V75H183.508V55.9805H186.777ZM183.262 50.9355C183.262 50.4082 183.42 49.9629 183.736 49.5996C184.064 49.2363 184.545 49.0547 185.178 49.0547C185.799 49.0547 186.273 49.2363 186.602 49.5996C186.941 49.9629 187.111 50.4082 187.111 50.9355C187.111 51.4395 186.941 51.873 186.602 52.2363C186.273 52.5879 185.799 52.7637 185.178 52.7637C184.545 52.7637 184.064 52.5879 183.736 52.2363C183.42 51.873 183.262 51.4395 183.262 50.9355ZM191.137 65.7012V65.2969C191.137 63.9258 191.336 62.6543 191.734 61.4824C192.133 60.2988 192.707 59.2734 193.457 58.4062C194.207 57.5273 195.115 56.8477 196.182 56.3672C197.248 55.875 198.443 55.6289 199.768 55.6289C201.104 55.6289 202.305 55.875 203.371 56.3672C204.449 56.8477 205.363 57.5273 206.113 58.4062C206.875 59.2734 207.455 60.2988 207.854 61.4824C208.252 62.6543 208.451 63.9258 208.451 65.2969V65.7012C208.451 67.0723 208.252 68.3438 207.854 69.5156C207.455 70.6875 206.875 71.7129 206.113 72.5918C205.363 73.459 204.455 74.1387 203.389 74.6309C202.334 75.1113 201.139 75.3516 199.803 75.3516C198.467 75.3516 197.266 75.1113 196.199 74.6309C195.133 74.1387 194.219 73.459 193.457 72.5918C192.707 71.7129 192.133 70.6875 191.734 69.5156C191.336 68.3438 191.137 67.0723 191.137 65.7012ZM194.389 65.2969V65.7012C194.389 66.6504 194.5 67.5469 194.723 68.3906C194.945 69.2227 195.279 69.9609 195.725 70.6055C196.182 71.25 196.75 71.7598 197.43 72.1348C198.109 72.498 198.9 72.6797 199.803 72.6797C200.693 72.6797 201.473 72.498 202.141 72.1348C202.82 71.7598 203.383 71.25 203.828 70.6055C204.273 69.9609 204.607 69.2227 204.83 68.3906C205.064 67.5469 205.182 66.6504 205.182 65.7012V65.2969C205.182 64.3594 205.064 63.4746 204.83 62.6426C204.607 61.7988 204.268 61.0547 203.811 60.4102C203.365 59.7539 202.803 59.2383 202.123 58.8633C201.455 58.4883 200.67 58.3008 199.768 58.3008C198.877 58.3008 198.092 58.4883 197.412 58.8633C196.744 59.2383 196.182 59.7539 195.725 60.4102C195.279 61.0547 194.945 61.7988 194.723 62.6426C194.5 63.4746 194.389 64.3594 194.389 65.2969ZM223.604 69.9551C223.604 69.4863 223.498 69.0527 223.287 68.6543C223.088 68.2441 222.672 67.875 222.039 67.5469C221.418 67.207 220.48 66.9141 219.227 66.668C218.172 66.4453 217.217 66.1816 216.361 65.877C215.518 65.5723 214.797 65.2031 214.199 64.7695C213.613 64.3359 213.162 63.8262 212.846 63.2402C212.529 62.6543 212.371 61.9688 212.371 61.1836C212.371 60.4336 212.535 59.7246 212.863 59.0566C213.203 58.3887 213.678 57.7969 214.287 57.2812C214.908 56.7656 215.652 56.3613 216.52 56.0684C217.387 55.7754 218.354 55.6289 219.42 55.6289C220.943 55.6289 222.244 55.8984 223.322 56.4375C224.4 56.9766 225.227 57.6973 225.801 58.5996C226.375 59.4902 226.662 60.4805 226.662 61.5703H223.41C223.41 61.043 223.252 60.5332 222.936 60.041C222.631 59.5371 222.18 59.1211 221.582 58.793C220.996 58.4648 220.275 58.3008 219.42 58.3008C218.518 58.3008 217.785 58.4414 217.223 58.7227C216.672 58.9922 216.268 59.3379 216.01 59.7598C215.764 60.1816 215.641 60.627 215.641 61.0957C215.641 61.4473 215.699 61.7637 215.816 62.0449C215.945 62.3145 216.168 62.5664 216.484 62.8008C216.801 63.0234 217.246 63.2344 217.82 63.4336C218.395 63.6328 219.127 63.832 220.018 64.0312C221.576 64.3828 222.859 64.8047 223.867 65.2969C224.875 65.7891 225.625 66.3926 226.117 67.1074C226.609 67.8223 226.855 68.6895 226.855 69.709C226.855 70.541 226.68 71.3027 226.328 71.9941C225.988 72.6855 225.49 73.2832 224.834 73.7871C224.189 74.2793 223.416 74.666 222.514 74.9473C221.623 75.2168 220.621 75.3516 219.508 75.3516C217.832 75.3516 216.414 75.0527 215.254 74.4551C214.094 73.8574 213.215 73.084 212.617 72.1348C212.02 71.1855 211.721 70.1836 211.721 69.1289H214.99C215.037 70.0195 215.295 70.7285 215.764 71.2559C216.232 71.7715 216.807 72.1406 217.486 72.3633C218.166 72.5742 218.84 72.6797 219.508 72.6797C220.398 72.6797 221.143 72.5625 221.74 72.3281C222.35 72.0938 222.812 71.7715 223.129 71.3613C223.445 70.9512 223.604 70.4824 223.604 69.9551Z" fill="white"/>
<path d="M1.79464 33.125H65.2054C66.1924 33.125 67 33.8316 67 34.6953V68.7188C67 72.1865 63.7846 75 59.8214 75H7.17857C3.2154 75 0 72.1865 0 68.7188V34.6953C0 33.8316 0.807589 33.125 1.79464 33.125ZM67 27.3672V22.6562C67 19.1885 63.7846 16.375 59.8214 16.375H52.6429V9.57031C52.6429 8.70664 51.8353 8 50.8482 8H44.8661C43.879 8 43.0714 8.70664 43.0714 9.57031V16.375H23.9286V9.57031C23.9286 8.70664 23.121 8 22.1339 8H16.1518C15.1647 8 14.3571 8.70664 14.3571 9.57031V16.375H7.17857C3.2154 16.375 0 19.1885 0 22.6562V27.3672C0 28.2309 0.807589 28.9375 1.79464 28.9375H65.2054C66.1924 28.9375 67 28.2309 67 27.3672Z" fill="white"/>
</svg>
